<svg width="26" height="23" viewBox="0 0 26 23" fill="none" xmlns="http://www.w3.org/2000/svg">
<path d="M24.4617 6.96253L13.5146 1.05511C13.1928 0.881777 12.8061 0.881777 12.4854 1.05511L1.54375 6.96253C1.01725 7.24853 0.821171 7.90503 1.105 8.43153C1.3 8.79444 1.67375 9.00028 2.05834 9.00028C2.23167 9.00028 2.40934 8.95911 2.57292 8.87028L3.36809 8.44128L5.09059 20.6288C5.32459 21.9439 6.50975 22.8626 7.97225 22.8626H18.0278C19.4903 22.8626 20.6754 21.9439 20.9116 20.6006L22.6319 8.44019L23.4303 8.87136C23.9558 9.15628 24.6133 8.96019 24.8972 8.43369C25.1821 7.90719 24.9838 7.24961 24.4595 6.96578L24.4617 6.96253ZM13 15.7213C11.0554 15.7213 9.47917 14.145 9.47917 12.2004C9.47917 10.2559 11.0554 8.67961 13 8.67961C14.9446 8.67961 16.5208 10.2559 16.5208 12.2004C16.5208 14.145 14.9446 15.7213 13 15.7213Z" fill="#1DA1F2"/>
</svg>
