<svg width="26" height="26" viewBox="0 0 26 26" fill="none" xmlns="http://www.w3.org/2000/svg">
<path d="M20.8542 3.2695H5.14582C3.50241 3.2695 2.16666 4.60633 2.16666 6.25083V19.7871C2.16666 21.4316 3.50241 22.7695 5.14582 22.7695H20.8542C22.4976 22.7695 23.8333 21.4316 23.8333 19.7871V6.25083C23.8333 4.60633 22.4976 3.2695 20.8542 3.2695ZM5.14582 4.8945H20.8542C21.6017 4.8945 22.2083 5.50117 22.2083 6.24867V7.02217L13.4875 12.8364C13.1917 13.0314 12.8093 13.0336 12.5125 12.8343L3.79166 7.02217V6.24867C3.79166 5.50117 4.39832 4.8945 5.14582 4.8945ZM20.8542 21.1423H5.14582C4.39832 21.1423 3.79166 20.5357 3.79166 19.7882V8.92667L11.635 14.1592C12.0499 14.4365 12.5255 14.5752 13 14.5752C13.4767 14.5752 13.9501 14.4365 14.365 14.1603L22.2083 8.92775V19.7849C22.2083 20.5324 21.6017 21.1391 20.8542 21.1391V21.1423Z" fill="black"/>
</svg>
