<svg width="26" height="26" viewBox="0 0 26 26" fill="none" xmlns="http://www.w3.org/2000/svg">
<path d="M17.875 11.1042C16.8296 11.1042 15.9792 11.9568 15.9792 13C15.9792 14.0433 16.8285 14.8958 17.875 14.8958C18.9193 14.8958 19.7708 14.0443 19.7708 13C19.7708 11.9557 18.9193 11.1042 17.875 11.1042ZM17.875 13.8125C17.4265 13.8125 17.0625 13.4485 17.0625 13C17.0625 12.5526 17.4276 12.1875 17.875 12.1875C18.3224 12.1875 18.6875 12.5515 18.6875 13C18.6875 13.4474 18.3235 13.8125 17.875 13.8125ZM13 11.1042C11.9535 11.1042 11.1042 11.9568 11.1042 13C11.1042 14.0433 11.9546 14.8958 13 14.8958C14.0454 14.8958 14.8958 14.0443 14.8958 13C14.8958 11.9557 14.0465 11.1042 13 11.1042ZM13 13.8125C12.5515 13.8125 12.1875 13.4485 12.1875 13C12.1875 12.5526 12.5526 12.1875 13 12.1875C13.4474 12.1875 13.8125 12.5515 13.8125 13C13.8125 13.4474 13.4485 13.8125 13 13.8125ZM8.12499 11.1042C7.07957 11.1042 6.22916 11.9568 6.22916 13C6.22916 14.0433 7.07957 14.8958 8.12499 14.8958C9.16932 14.8958 10.0208 14.0443 10.0208 13C10.0208 11.9557 9.16824 11.1042 8.12499 11.1042ZM8.12499 13.8125C7.67649 13.8125 7.31249 13.4485 7.31249 13C7.31249 12.5526 7.67757 12.1875 8.12499 12.1875C8.57241 12.1875 8.93749 12.5515 8.93749 13C8.93749 13.4474 8.57349 13.8125 8.12499 13.8125Z" fill="black"/>
<path d="M13 24.6458C6.57799 24.6458 1.35416 19.422 1.35416 13C1.35416 6.57801 6.57799 1.35417 13 1.35417C19.422 1.35417 24.6458 6.57801 24.6458 13C24.6458 19.422 19.422 24.6458 13 24.6458ZM13 2.97917C7.47499 2.97917 2.97916 7.47501 2.97916 13C2.97916 18.525 7.47499 23.0208 13 23.0208C18.525 23.0208 23.0208 18.525 23.0208 13C23.0208 7.47501 18.525 2.97917 13 2.97917Z" fill="black"/>
</svg>
