<svg width="26" height="26" viewBox="0 0 26 26" fill="none" xmlns="http://www.w3.org/2000/svg">
<path d="M23.5051 17.8403C23.4834 17.823 21.1867 16.0637 21.2268 11.3078C21.2485 8.56482 20.3472 6.12732 18.6842 4.4449C17.1947 2.93582 15.1775 2.10165 13.0054 2.09082H12.9913C10.8203 2.10165 8.80316 2.93582 7.3125 4.44599C5.65066 6.1284 4.74716 8.56482 4.771 11.3078C4.81108 15.9987 2.58266 17.7721 2.49383 17.8403C2.21216 18.0494 2.09733 18.4145 2.20675 18.7482C2.31725 19.0818 2.62925 19.3061 2.97808 19.3061H8.30808C8.41858 21.8086 10.4715 23.8127 12.9989 23.8127C15.5263 23.8127 17.5771 21.8086 17.6865 19.3061H23.0187C23.3675 19.3061 23.6795 19.0829 23.7878 18.7492C23.8994 18.4167 23.7846 18.0505 23.5029 17.8414L23.5051 17.8403ZM13 22.1845C11.3696 22.1845 10.0425 20.9094 9.93633 19.305H16.0637C15.9553 20.9083 14.6304 22.1867 13 22.1867V22.1845ZM4.745 17.68C5.54666 16.4537 6.422 14.3997 6.396 11.2927C6.3765 8.95265 7.09366 6.97882 8.46841 5.58674C9.6525 4.38749 11.2634 3.7234 13 3.71582C14.7366 3.72449 16.3442 4.38749 17.5283 5.58782C18.9042 6.9799 19.6224 8.95265 19.6029 11.2937C19.5769 14.4007 20.4533 16.4558 21.255 17.6811H4.745V17.68Z" fill="black"/>
</svg>
