<svg width="20" height="23" viewBox="0 0 20 23" fill="none" xmlns="http://www.w3.org/2000/svg">
<path d="M18.5583 22.4583C18.3882 22.4583 18.2203 22.4042 18.0795 22.3023L9.99998 16.422L1.92048 22.3045C1.67348 22.4822 1.34632 22.5103 1.07332 22.3695C0.802484 22.2319 0.62915 21.9524 0.62915 21.6469V3.06668C0.62915 1.72335 1.72332 0.629181 3.06665 0.629181H16.9312C18.2745 0.629181 19.3687 1.72335 19.3687 3.06668V21.6458C19.3687 21.9513 19.1975 22.2308 18.9245 22.3695C18.8097 22.4291 18.6829 22.4583 18.5562 22.4583H18.5583ZM9.99998 14.6042C10.1679 14.6042 10.3358 14.6562 10.4767 14.7602L17.7458 20.0501V3.06668C17.7458 2.62035 17.3807 2.25418 16.9333 2.25418H3.06665C2.61923 2.25418 2.25415 2.62035 2.25415 3.06668V20.0501L9.52332 14.7602C9.66415 14.6562 9.83207 14.6042 9.99998 14.6042V14.6042Z" fill="black"/>
</svg>
