<svg width="22" height="22" viewBox="0 0 22 22" fill="none" xmlns="http://www.w3.org/2000/svg">
<path d="M20.75 5.94841H16.4925L16.8955 1.32041C16.9345 0.874079 16.603 0.480829 16.1567 0.440746C15.7049 0.408246 15.316 0.733246 15.277 1.18066L14.8621 5.94733H8.01542L8.41625 1.3215C8.45633 0.874079 8.12375 0.480829 7.67958 0.440746C7.22458 0.408246 6.83783 0.733246 6.79883 1.18066L6.385 5.94733H2.09717C1.64867 5.94733 1.28467 6.31241 1.28467 6.75983C1.28467 7.20725 1.64867 7.57233 2.09717 7.57233H6.24417L5.64833 14.4266H1.25C0.8015 14.4266 0.4375 14.7906 0.4375 15.2391C0.4375 15.6876 0.8015 16.0516 1.25 16.0516H5.5075L5.1045 20.6796C5.0655 21.1259 5.397 21.5192 5.84333 21.5592L5.91483 21.5625C6.33192 21.5625 6.68617 21.2429 6.723 20.8193L7.13792 16.0527H13.9846L13.5838 20.6785C13.5448 21.1259 13.8763 21.5192 14.3226 21.5592L14.3941 21.5625C14.8112 21.5625 15.1654 21.2429 15.2023 20.8193L15.6161 16.0527H19.9028C20.3503 16.0527 20.7153 15.6876 20.7153 15.2402C20.7153 14.7927 20.3503 14.4277 19.9028 14.4277H15.7558L16.3517 7.57341H20.75C21.1985 7.57341 21.5625 7.20941 21.5625 6.76091C21.5625 6.31241 21.1985 5.94841 20.75 5.94841V5.94841ZM14.1254 14.4266H7.27875L7.87458 7.57341H14.7213L14.1254 14.4266Z" fill="black"/>
</svg>
