<svg width="26" height="23" viewBox="0 0 26 23" fill="none" xmlns="http://www.w3.org/2000/svg">
<path d="M24.4616 6.9625L13.5146 1.05508C13.1928 0.881746 12.8061 0.881746 12.4854 1.05508L1.54372 6.9625C1.01722 7.2485 0.821141 7.905 1.10497 8.4315C1.29997 8.79441 1.67372 9.00025 2.05831 9.00025C2.23164 9.00025 2.40931 8.95908 2.57289 8.87025L3.36806 8.44125L5.09056 20.6287C5.32456 21.9439 6.50972 22.8626 7.97222 22.8626H18.0277C19.4902 22.8626 20.6754 21.9439 20.9116 20.6006L22.6319 8.44016L23.4303 8.87133C23.9557 9.15625 24.6133 8.96016 24.8971 8.43366C25.1821 7.90716 24.9838 7.24958 24.4595 6.96575L24.4616 6.9625ZM13 15.7212C11.0554 15.7212 9.47914 14.145 9.47914 12.2004C9.47914 10.2558 11.0554 8.67958 13 8.67958C14.9446 8.67958 16.5208 10.2558 16.5208 12.2004C16.5208 14.145 14.9446 15.7212 13 15.7212Z" fill="#1DA1F2"/>
</svg>
