<svg width="22" height="22" viewBox="0 0 22 22" fill="none" xmlns="http://www.w3.org/2000/svg">
<path d="M19.3959 21.8333H2.60419C1.26085 21.8333 0.166687 20.7392 0.166687 19.3958V2.60416C0.166687 1.26082 1.26085 0.166656 2.60419 0.166656H19.3959C20.7392 0.166656 21.8334 1.26082 21.8334 2.60416V19.3958C21.8334 20.7392 20.7392 21.8333 19.3959 21.8333ZM2.60419 1.79166C2.15569 1.79166 1.79169 2.15674 1.79169 2.60416V19.3958C1.79169 19.8432 2.15569 20.2083 2.60419 20.2083H19.3959C19.8444 20.2083 20.2084 19.8432 20.2084 19.3958V2.60416C20.2084 2.15674 19.8444 1.79166 19.3959 1.79166H2.60419Z" fill="black"/>
<path d="M16.4167 7.35999H5.58337C5.13487 7.35999 4.77087 6.9949 4.77087 6.54749C4.77087 6.10007 5.13487 5.73499 5.58337 5.73499H16.4167C16.8652 5.73499 17.2292 6.0979 17.2292 6.54749C17.2292 6.99707 16.8652 7.35999 16.4167 7.35999ZM16.4167 11.8125H5.58337C5.13487 11.8125 4.77087 11.4485 4.77087 11C4.77087 10.5515 5.13487 10.1875 5.58337 10.1875H16.4167C16.8652 10.1875 17.2292 10.5515 17.2292 11C17.2292 11.4485 16.8652 11.8125 16.4167 11.8125ZM11 16.265H5.58337C5.13487 16.265 4.77087 15.9021 4.77087 15.4525C4.77087 15.0029 5.13487 14.64 5.58337 14.64H11C11.4485 14.64 11.8125 15.0051 11.8125 15.4525C11.8125 15.8999 11.4485 16.265 11 16.265Z" fill="black"/>
</svg>
