<svg width="22" height="20" viewBox="0 0 22 20" fill="none" xmlns="http://www.w3.org/2000/svg">
<path d="M18.8542 0.269501H3.14585C1.50244 0.269501 0.166687 1.60633 0.166687 3.25083V16.7871C0.166687 18.4316 1.50244 19.7695 3.14585 19.7695H18.8542C20.4976 19.7695 21.8334 18.4316 21.8334 16.7871V3.25083C21.8334 1.60633 20.4976 0.269501 18.8542 0.269501ZM3.14585 1.8945H18.8542C19.6017 1.8945 20.2084 2.50117 20.2084 3.24867V4.02217L11.4875 9.83642C11.1918 10.0314 10.8094 10.0336 10.5125 9.83425L1.79169 4.02217V3.24867C1.79169 2.50117 2.39835 1.8945 3.14585 1.8945V1.8945ZM18.8542 18.1423H3.14585C2.39835 18.1423 1.79169 17.5357 1.79169 16.7882V5.92667L9.63502 11.1592C10.0499 11.4365 10.5255 11.5752 11 11.5752C11.4767 11.5752 11.9501 11.4365 12.365 11.1603L20.2084 5.92775V16.7849C20.2084 17.5324 19.6017 18.1391 18.8542 18.1391V18.1423Z" fill="black"/>
</svg>
