<svg width="24" height="24" viewBox="0 0 24 24" fill="none" xmlns="http://www.w3.org/2000/svg">
<path d="M16.875 10.1042C15.8296 10.1042 14.9792 10.9568 14.9792 12C14.9792 13.0433 15.8285 13.8959 16.875 13.8959C17.9194 13.8959 18.7709 13.0444 18.7709 12C18.7709 10.9557 17.9194 10.1042 16.875 10.1042ZM16.875 12.8125C16.4265 12.8125 16.0625 12.4485 16.0625 12C16.0625 11.5526 16.4276 11.1875 16.875 11.1875C17.3224 11.1875 17.6875 11.5515 17.6875 12C17.6875 12.4474 17.3235 12.8125 16.875 12.8125ZM12 10.1042C10.9535 10.1042 10.1042 10.9568 10.1042 12C10.1042 13.0433 10.9546 13.8959 12 13.8959C13.0454 13.8959 13.8959 13.0444 13.8959 12C13.8959 10.9557 13.0465 10.1042 12 10.1042ZM12 12.8125C11.5515 12.8125 11.1875 12.4485 11.1875 12C11.1875 11.5526 11.5526 11.1875 12 11.1875C12.4474 11.1875 12.8125 11.5515 12.8125 12C12.8125 12.4474 12.4485 12.8125 12 12.8125ZM7.12502 10.1042C6.0796 10.1042 5.22919 10.9568 5.22919 12C5.22919 13.0433 6.0796 13.8959 7.12502 13.8959C8.16935 13.8959 9.02085 13.0444 9.02085 12C9.02085 10.9557 8.16827 10.1042 7.12502 10.1042ZM7.12502 12.8125C6.67652 12.8125 6.31252 12.4485 6.31252 12C6.31252 11.5526 6.6776 11.1875 7.12502 11.1875C7.57244 11.1875 7.93752 11.5515 7.93752 12C7.93752 12.4474 7.57352 12.8125 7.12502 12.8125Z" fill="black"/>
<path d="M12 23.6459C5.57802 23.6459 0.354187 18.422 0.354187 12C0.354187 5.57802 5.57802 0.354187 12 0.354187C18.422 0.354187 23.6459 5.57802 23.6459 12C23.6459 18.422 18.422 23.6459 12 23.6459ZM12 1.97919C6.47502 1.97919 1.97919 6.47502 1.97919 12C1.97919 17.525 6.47502 22.0209 12 22.0209C17.525 22.0209 22.0209 17.525 22.0209 12C22.0209 6.47502 17.525 1.97919 12 1.97919Z" fill="black"/>
</svg>
