<svg width="22" height="22" viewBox="0 0 22 22" fill="none" xmlns="http://www.w3.org/2000/svg">
<path d="M21.5051 15.8403C21.4834 15.823 19.1867 14.0637 19.2268 9.30782C19.2485 6.56482 18.3472 4.12732 16.6842 2.4449C15.1947 0.935821 13.1775 0.101654 11.0054 0.0908203H10.9913C8.82033 0.101654 6.80317 0.93582 5.3125 2.44599C3.65066 4.1284 2.74716 6.56482 2.771 9.30782C2.81108 13.9987 0.582665 15.7721 0.493831 15.8403C0.212165 16.0494 0.0973314 16.4145 0.206748 16.7482C0.317248 17.0818 0.629248 17.3061 0.978082 17.3061H6.30808C6.41858 19.8086 8.4715 21.8127 10.9989 21.8127C13.5263 21.8127 15.5771 19.8086 15.6865 17.3061H21.0187C21.3675 17.3061 21.6795 17.0829 21.7878 16.7492C21.8994 16.4167 21.7846 16.0505 21.5029 15.8414L21.5051 15.8403ZM11 20.1845C9.36958 20.1845 8.0425 18.9094 7.93633 17.305H14.0637C13.9553 18.9083 12.6304 20.1867 11 20.1867V20.1845ZM2.745 15.68C3.54666 14.4537 4.422 12.3997 4.396 9.29265C4.3765 6.95265 5.09366 4.97882 6.46841 3.58674C7.6525 2.38749 9.26342 1.7234 11 1.71582C12.7366 1.72449 14.3442 2.38749 15.5283 3.58782C16.9042 4.9799 17.6224 6.95265 17.6029 9.29374C17.5769 12.4007 18.4533 14.4558 19.255 15.6811H2.745V15.68Z" fill="black"/>
</svg>
