<svg width="31" height="26" viewBox="0 0 31 26" fill="none" xmlns="http://www.w3.org/2000/svg">
<path d="M30.524 3.58266C29.4107 4.07599 28.2147 4.40933 26.9573 4.55999C28.24 3.79199 29.224 2.57333 29.688 1.12266C28.488 1.83466 27.1587 2.35199 25.744 2.62933C24.6107 1.42399 22.9973 0.669327 21.2107 0.669327C17.7813 0.669327 15 3.45066 15 6.88266C15 7.36799 15.056 7.83999 15.16 8.29599C9.996 8.03599 5.42133 5.56266 2.35733 1.80533C1.824 2.72533 1.51733 3.79199 1.51733 4.92799C1.51733 7.08266 2.61466 8.98533 4.28 10.0987C3.26133 10.0653 2.304 9.78666 1.46666 9.32133V9.40133C1.46666 12.4107 3.60666 14.9213 6.44933 15.492C5.92666 15.6333 5.37866 15.708 4.81333 15.708C4.41333 15.708 4.02266 15.6707 3.644 15.5987C4.43466 18.0653 6.728 19.8627 9.44666 19.9107C7.32 21.5773 4.64133 22.5707 1.732 22.5707C1.23066 22.5707 0.735995 22.5413 0.249329 22.484C2.99866 24.248 6.26266 25.2747 9.76933 25.2747C21.196 25.2747 27.4427 15.8107 27.4427 7.60266C27.4427 7.33599 27.436 7.06666 27.424 6.79999C28.6373 5.92266 29.6907 4.83066 30.5213 3.58666L30.524 3.58266Z" fill="#1DA1F2"/>
</svg>
