<svg width="18" height="18" viewBox="0 0 18 18" fill="none" xmlns="http://www.w3.org/2000/svg">
<path d="M16.9416 16.0584L13.8916 13.0084C14.9958 11.7 15.6666 10.0117 15.6666 8.16669C15.6666 4.02502 12.3083 0.666687 8.16663 0.666687C4.02496 0.666687 0.666626 4.02502 0.666626 8.16669C0.666626 12.3084 4.02496 15.6667 8.16663 15.6667C10.0125 15.6667 11.7 14.9967 13.0066 13.8917L16.0566 16.9417C16.1791 17.0634 16.34 17.125 16.4983 17.125C16.6566 17.125 16.8191 17.0642 16.94 16.9417C17.1858 16.6975 17.1858 16.3025 16.9416 16.0584ZM1.91663 8.16669C1.91663 4.72085 4.72079 1.91669 8.16663 1.91669C11.6125 1.91669 14.4166 4.72085 14.4166 8.16669C14.4166 11.6125 11.6125 14.4167 8.16663 14.4167C4.72079 14.4167 1.91663 11.6125 1.91663 8.16669Z" fill="#828282"/>
</svg>
