<svg width="15" height="16" viewBox="0 0 15 16" fill="none" xmlns="http://www.w3.org/2000/svg">
<path d="M9.03452 0.681511L5.92352 0.674011H5.92202C2.64152 0.674011 0.0720215 3.24426 0.0720215 6.52551C0.0720215 9.59901 2.46152 11.93 5.67077 12.053V14.924C5.67077 15.005 5.70377 15.1385 5.76077 15.2263C5.86727 15.395 6.04877 15.4865 6.23477 15.4865C6.33827 15.4865 6.44252 15.458 6.53627 15.398C6.73427 15.272 11.391 12.293 12.6023 11.2685C14.0288 10.061 14.8823 8.29101 14.8845 6.53451V6.52176C14.88 3.24651 12.312 0.681511 9.03452 0.680761V0.681511ZM11.8748 10.4105C11.0243 11.1305 8.22827 12.9643 6.79577 13.8928V11.5025C6.79577 11.192 6.54452 10.94 6.23327 10.94H5.93627C3.19127 10.94 1.19777 9.08301 1.19777 6.52551C1.19777 3.87501 3.27377 1.79901 5.92277 1.79901L9.03302 1.80651H9.03452C11.6835 1.80651 13.7595 3.88101 13.761 6.52851C13.7588 7.96101 13.0545 9.41151 11.8755 10.4105H11.8748Z" fill="#828282"/>
</svg>
