<svg width="15" height="16" viewBox="0 0 15 16" fill="none" xmlns="http://www.w3.org/2000/svg">
<path d="M11.6475 4.6025L7.89751 0.852496C7.67776 0.632746 7.32151 0.632746 7.10251 0.852496L3.35251 4.6025C3.13201 4.82225 3.13201 5.1785 3.35251 5.3975C3.57301 5.6165 3.92776 5.618 4.14751 5.3975L6.93751 2.6075V10.25C6.93751 10.5605 7.18951 10.8125 7.50001 10.8125C7.81051 10.8125 8.06251 10.5605 8.06251 10.25V2.6075L10.8525 5.3975C10.962 5.50775 11.106 5.5625 11.25 5.5625C11.394 5.5625 11.538 5.5085 11.6475 5.3975C11.8673 5.17775 11.8673 4.82225 11.6475 4.6025Z" fill="#828282"/>
<path d="M13.281 15.458H1.719C0.771 15.458 0 14.687 0 13.739V9.5C0 9.1895 0.252 8.9375 0.5625 8.9375C0.873 8.9375 1.125 9.1895 1.125 9.5V13.739C1.125 14.0668 1.39125 14.333 1.719 14.333H13.281C13.6088 14.333 13.875 14.0668 13.875 13.739V9.5C13.875 9.1895 14.127 8.9375 14.4375 8.9375C14.748 8.9375 15 9.1895 15 9.5V13.739C15 14.687 14.229 15.458 13.281 15.458Z" fill="#828282"/>
</svg>
