<svg width="19" height="14" viewBox="0 0 19 14" fill="none" xmlns="http://www.w3.org/2000/svg">
<path d="M18.3275 9.7525C18.1085 9.53275 17.7522 9.53275 17.5325 9.7525L15.8675 11.4175V3.7375C15.8675 2.1865 14.6052 0.924997 13.055 0.924997H8.66748C8.35698 0.924997 8.10498 1.177 8.10498 1.4875C8.10498 1.798 8.35698 2.05 8.66748 2.05H13.055C13.985 2.05 14.7425 2.8075 14.7425 3.7375V11.4175L13.0775 9.7525C12.8577 9.53275 12.5015 9.53275 12.2825 9.7525C12.0635 9.97225 12.062 10.3285 12.2825 10.5475L14.9075 13.1725C15.0162 13.2827 15.1602 13.3375 15.305 13.3375C15.4497 13.3375 15.5922 13.2835 15.7025 13.1725L18.3275 10.5475C18.548 10.3285 18.548 9.97225 18.3275 9.7525ZM10.3325 12.2125H5.94498C5.01498 12.2125 4.25748 11.455 4.25748 10.525V2.845L5.92248 4.51C6.03348 4.62025 6.17748 4.675 6.32148 4.675C6.46548 4.675 6.60948 4.62025 6.71898 4.51C6.93873 4.29025 6.93873 3.934 6.71898 3.715L4.09398 1.09C3.87423 0.869497 3.51798 0.869497 3.29898 1.09L0.673981 3.715C0.453481 3.934 0.453481 4.29025 0.673981 4.51C0.894481 4.72975 1.24923 4.72975 1.46898 4.51L3.13398 2.845V10.525C3.13398 12.076 4.39623 13.3375 5.94648 13.3375H10.334C10.6445 13.3375 10.8965 13.0855 10.8965 12.775C10.8965 12.4645 10.6437 12.2125 10.334 12.2125H10.3325Z" fill="#828282"/>
</svg>
