<svg width="22" height="22" viewBox="0 0 22 22" fill="none" xmlns="http://www.w3.org/2000/svg">
<path d="M11.0001 7.21002C8.91008 7.21002 7.21008 8.91002 7.21008 11C7.21008 13.09 8.91008 14.79 11.0001 14.79C13.0901 14.79 14.7901 13.09 14.7901 11C14.7901 8.91002 13.0901 7.21002 11.0001 7.21002ZM11.0001 13.29C9.73808 13.29 8.71008 12.264 8.71008 11C8.71008 9.73602 9.74008 8.71002 11.0001 8.71002C12.2601 8.71002 13.2901 9.73602 13.2901 11C13.2901 12.264 12.2621 13.29 11.0001 13.29Z" fill="#1DA1F2"/>
<path d="M11.36 21.375H10.638C9.45505 21.375 8.48405 20.487 8.37605 19.311L8.36205 19.164C8.33705 18.877 8.15505 18.631 7.89005 18.52C7.60405 18.4 7.30805 18.455 7.09205 18.635L6.97605 18.732C6.10805 19.457 4.72305 19.395 3.91605 18.592L3.40605 18.082C2.57005 17.242 2.51005 15.928 3.26605 15.022L3.36405 14.904C3.55005 14.682 3.59405 14.381 3.48605 14.117C3.37605 13.845 3.12805 13.663 2.84005 13.637L2.69005 13.623C1.51005 13.516 0.623047 12.543 0.623047 11.361V10.639C0.623047 9.456 1.51105 8.485 2.68705 8.377L2.84305 8.363C3.12805 8.338 3.37305 8.156 3.48505 7.89C3.59505 7.62 3.55005 7.317 3.36505 7.095L3.27105 6.979C2.51405 6.071 2.57305 4.756 3.40805 3.919L3.92005 3.407C4.72405 2.603 6.10805 2.542 6.98005 3.267L7.09605 3.365C7.31405 3.549 7.62405 3.595 7.88605 3.487C8.15605 3.375 8.33805 3.129 8.36305 2.844L8.37705 2.691C8.48405 1.511 9.45705 0.625 10.639 0.625H11.361C12.544 0.625 13.515 1.513 13.623 2.689L13.637 2.845C13.662 3.13 13.843 3.375 14.109 3.485C14.386 3.602 14.689 3.547 14.903 3.368L15.023 3.266C15.89 2.543 17.277 2.604 18.083 3.406L18.593 3.918C19.429 4.756 19.489 6.071 18.733 6.978L18.633 7.096C18.445 7.316 18.399 7.618 18.51 7.884C18.622 8.154 18.87 8.334 19.156 8.362L19.308 8.376C20.488 8.483 21.375 9.456 21.375 10.638V11.361C21.375 12.544 20.487 13.515 19.311 13.623L19.156 13.637C18.872 13.661 18.626 13.842 18.516 14.107C18.403 14.379 18.449 14.681 18.633 14.902L18.733 15.022C19.489 15.927 19.429 17.242 18.593 18.082L18.083 18.592C17.276 19.396 15.893 19.456 15.023 18.732L14.908 18.636C14.691 18.453 14.378 18.406 14.118 18.514C13.845 18.628 13.663 18.874 13.638 19.16L13.624 19.31C13.517 20.483 12.544 21.37 11.362 21.37L11.36 21.375ZM7.58705 16.955C7.88705 16.955 8.18005 17.015 8.45705 17.13C9.24705 17.458 9.78105 18.184 9.85705 19.026L9.87105 19.173C9.90805 19.573 10.238 19.873 10.641 19.873H11.363C11.763 19.873 12.093 19.573 12.131 19.173L12.145 19.025C12.221 18.183 12.755 17.458 13.537 17.133C14.33 16.803 15.233 16.951 15.87 17.483L15.983 17.577C16.161 17.725 16.349 17.757 16.476 17.757C16.682 17.757 16.876 17.677 17.022 17.53L17.532 17.02C17.816 16.736 17.837 16.29 17.58 15.982L17.48 15.862C16.938 15.212 16.803 14.322 17.128 13.539C17.454 12.749 18.18 12.219 19.022 12.142L19.177 12.128C19.574 12.091 19.877 11.761 19.877 11.358V10.636C19.877 10.236 19.574 9.906 19.175 9.868L19.023 9.854C18.177 9.776 17.453 9.244 17.128 8.461C16.802 7.673 16.938 6.783 17.481 6.134L17.581 6.016C17.838 5.706 17.817 5.26 17.533 4.976L17.023 4.466C16.877 4.319 16.683 4.239 16.477 4.239C16.35 4.239 16.162 4.271 15.985 4.419L15.865 4.519C15.231 5.047 14.315 5.189 13.543 4.873C12.755 4.546 12.223 3.821 12.146 2.977L12.132 2.822C12.097 2.425 11.767 2.122 11.365 2.122H10.642C10.242 2.122 9.91205 2.425 9.87405 2.824L9.86005 2.976C9.78405 3.819 9.25205 4.544 8.47005 4.869C7.68305 5.195 6.77705 5.052 6.14005 4.519L6.02205 4.423C5.84205 4.273 5.65405 4.243 5.52705 4.243C5.32105 4.243 5.12705 4.323 4.98105 4.469L4.46905 4.979C4.18705 5.263 4.16605 5.709 4.42305 6.017L4.52305 6.135C5.06305 6.788 5.20005 7.679 4.87505 8.46C4.54805 9.248 3.82305 9.78 2.98005 9.857L2.82405 9.871C2.42705 9.908 2.12405 10.238 2.12405 10.641V11.363C2.12405 11.763 2.42705 12.093 2.82605 12.131L2.97605 12.145C3.82405 12.223 4.54905 12.757 4.87305 13.541C5.19805 14.327 5.06305 15.216 4.52005 15.866L4.42405 15.981C4.16405 16.291 4.18605 16.737 4.47005 17.021L4.98005 17.531C5.12605 17.678 5.32005 17.758 5.52605 17.758C5.65305 17.758 5.84105 17.728 6.01805 17.578L6.13405 17.482C6.54005 17.146 7.05705 16.958 7.58705 16.958V16.955Z" fill="#1DA1F2"/>
</svg>
