<svg width="17" height="15" viewBox="0 0 17 15" fill="none" xmlns="http://www.w3.org/2000/svg">
<path d="M8.50003 14.2285H8.48953C6.55228 14.1925 0.962524 9.14203 0.962524 4.35853C0.962524 2.06053 2.85627 0.0430298 5.01477 0.0430298C6.73227 0.0430298 7.88727 1.22803 8.49927 2.09053C9.10977 1.22953 10.2648 0.0430298 11.983 0.0430298C14.143 0.0430298 16.036 2.06053 16.036 4.35928C16.036 9.14128 10.4455 14.1918 8.50828 14.227H8.50003V14.2285ZM5.01552 1.16878C3.45552 1.16878 2.08827 2.65978 2.08827 4.36003C2.08827 8.66503 7.36378 13.057 8.50078 13.1035C9.63928 13.057 14.9133 8.66578 14.9133 4.36003C14.9133 2.65978 13.546 1.16878 11.986 1.16878C10.09 1.16878 9.03102 3.37078 9.02203 3.39253C8.84953 3.81403 8.15503 3.81403 7.98178 3.39253C7.97128 3.37003 6.91302 1.16878 5.01627 1.16878H5.01552Z" fill="#828282"/>
</svg>
